<svg width="1602" height="200" viewBox="0 0 1602 200" fill="none" xmlns="http://www.w3.org/2000/svg">
<g filter="url(#filter0_b_2212_9965)">
<path d="M469.061 70.7947L385.808 0.156006H312.962L444.779 111.616V197.881H493.343V111.616L625.16 0.156006H552.314L469.061 70.7947Z" fill="#020206"/>
<path d="M0.761719 66.0687L37.1848 97.2885L97.8898 45.2556H245.316L297.349 0.160391H78.8111L0.761719 66.0687Z" fill="#020206"/>
<path d="M0.761719 131.967L37.1848 100.747L97.8898 152.78H245.316L297.349 197.876H78.8111L0.761719 131.967Z" fill="#020206"/>
<path fill-rule="evenodd" clip-rule="evenodd" d="M645.971 0.156006H861.041L911.339 43.5168V74.7365L886.562 99.8857L911.339 125.035V159.724L864.51 199.615H645.971V79.9398H850.634L867.978 60.8611L845.431 41.7823H645.971V0.156006ZM694.535 119.832V157.989H850.634L871.447 138.91L850.634 119.832H694.535Z" fill="#020206"/>
<path fill-rule="evenodd" clip-rule="evenodd" d="M1335.34 0.156006L1229.77 97.3429L1335.34 197.881H1496.2L1601.76 97.3429L1496.2 0.156006H1335.34ZM1291.77 97.3429L1339.39 143.605L1439.28 43.7225H1350.42L1291.77 97.3429ZM1488.97 50.9018L1385.56 154.315H1481.12L1539.76 97.3429L1488.97 50.9018Z" fill="#020206"/>
<path d="M931.853 0.156081H1153.86L1204.16 46.9857V78.2055L1155.59 123.301L1231.91 197.881H1164.27L1084.48 125.035H976.948V198.748H931.853V83.4088H1136.52L1157.33 64.33L1136.52 45.2513H931.853V0.156081Z" fill="#020206"/>
</g>
<defs>
<filter id="filter0_b_2212_9965" x="-40.2973" y="-40.903" width="1683.12" height="281.578" filterUnits="userSpaceOnUse" color-interpolation-filters="sRGB">
<feFlood flood-opacity="0" result="BackgroundImageFix"/>
<feGaussianBlur in="BackgroundImageFix" stdDeviation="20.5295"/>
<feComposite in2="SourceAlpha" operator="in" result="effect1_backgroundBlur_2212_9965"/>
<feBlend mode="normal" in="SourceGraphic" in2="effect1_backgroundBlur_2212_9965" result="shape"/>
</filter>
</defs>
</svg>
